<svg xmlns="http://www.w3.org/2000/svg" viewBox="0 0 501.66 169.52"><defs><style>.cls-1{fill:red;}.cls-2,.cls-3{stroke:#000;stroke-width:1.33px;}.cls-2{stroke-linecap:round;stroke-linejoin:round;}.cls-3{stroke-miterlimit:10;}</style></defs><g id="Capa_2" data-name="Capa 2"><g id="Capa_1-2" data-name="Capa 1"><path class="cls-1" d="M135,93.07A51.66,51.66,0,0,1,33.56,96.61c-.32-1.44-.58-2.9-.79-4.38A7.89,7.89,0,0,1,48,90.71c.11.71.24,1.42.39,2.12h0a36.33,36.33,0,0,0,71.22-1c0-.24.09-.48.13-.73a7.26,7.26,0,0,1,.61-1.71,7.65,7.65,0,0,1,13.72,0,7.51,7.51,0,0,1,.79,3.31C134.93,92.87,135,93,135,93.07Z"/><path d="M84,169.25A84.07,84.07,0,0,1,.32,93.64l0-.13q0-.33,0-.66a7.39,7.39,0,0,1,14.66-1.28c0,.36.07.73.11,1.11A69.27,69.27,0,0,0,84,154.51a69.37,69.37,0,0,0,68.58-79.34c-.07-.5-.15-1-.23-1.48,0-.11,0-.26,0-.41a7.43,7.43,0,0,1,14.53-2.19c.11.69.22,1.41.33,2.14a85.17,85.17,0,0,1,.84,12,84,84,0,0,1-84,84.05Z"/><path d="M159.72,66.13a7.11,7.11,0,0,1,6.82,5c.12.7.23,1.41.34,2.13a84.71,84.71,0,0,1,.84,11.93A83.51,83.51,0,0,1,148,139.14a84.89,84.89,0,0,1-12.86,12.35A83.78,83.78,0,0,1,.59,93.61h0v-.13q0-.32,0-.63a7.11,7.11,0,0,1,14.1-1.26c0,.38.07.75.11,1.12a69.6,69.6,0,0,0,105.5,51.85,69.66,69.66,0,0,0,32.55-69.39h0v0c-.07-.49-.14-1-.22-1.45,0-.13,0-.26,0-.4a7.15,7.15,0,0,1,7.15-7.15m0-.55a7.7,7.7,0,0,0-7.7,7.7c0,.16,0,.31,0,.46.08.49.16,1,.23,1.47h0a70,70,0,0,1,.72,10,68.71,68.71,0,0,1-9.9,35.64A69.23,69.23,0,0,1,120,144.1,69,69,0,0,1,15.31,92.65c0-.38-.08-.75-.11-1.12h0A7.66,7.66,0,0,0,0,92.85c0,.23,0,.46,0,.68a.13.13,0,0,0,0,.06v.07H0a84.36,84.36,0,0,0,158.61,30.67,84,84,0,0,0,9.62-39.14,84.89,84.89,0,0,0-.85-12h0c-.11-.73-.22-1.46-.34-2.18a7.71,7.71,0,0,0-7.36-5.43Z"/><path class="cls-1" d="M89.46,8.52a7.76,7.76,0,0,1-6.55,7.66c-.65,0-1.3,0-2,.05a69.06,69.06,0,0,0-60.6,42.05h0l-.25.58h0A7.66,7.66,0,0,1,5.93,53.14h0l.39-.94h0A84.36,84.36,0,0,1,80,1l.41,0h0L82,.9l1,0A7.76,7.76,0,0,1,89.46,8.52Z"/><path class="cls-1" d="M130.6,77.29A7.3,7.3,0,0,1,123.31,71c.2-1.42.46-2.86.77-4.26a51.08,51.08,0,0,1,25.73-33.79,84.13,84.13,0,0,1,8,12,36.48,36.48,0,0,0-7.11,4.57A36.89,36.89,0,0,0,138,70.26c-.16.72-.29,1.45-.4,2.16A7.31,7.31,0,0,1,130.6,77.29Z"/><path class="cls-1" d="M149.67,33.57a83.42,83.42,0,0,1,7.41,11.13,37.35,37.35,0,0,0-19.62,25.46c-.15.7-.28,1.4-.38,2.09A6.87,6.87,0,0,1,123.83,71c.19-1.39.44-2.78.75-4.15a50.58,50.58,0,0,1,25.09-33.25m.27-1.3a51.73,51.73,0,0,0-26.35,34.32c-.33,1.44-.59,2.9-.79,4.38a7.89,7.89,0,0,0,15.27,1.52c.11-.71.24-1.42.39-2.12a36.44,36.44,0,0,1,20-25.23,84.27,84.27,0,0,0-8.54-12.87Z"/><path class="cls-2" d="M293.51,94.8v20.12a0,0,0,0,0,.05,0h21.31v-.07a66.51,66.51,0,0,1-21.26-20.13A.05.05,0,0,0,293.51,94.8Z"/><path class="cls-2" d="M261.34.69C229-.25,202.49,26,202.49,58.36v56.56a.06.06,0,0,0,.06,0H223.8a.06.06,0,0,0,.06,0V58.3c0-20.19,16.5-36.77,36.69-36.26a35.76,35.76,0,0,1,27.36,13.88,0,0,0,0,0,.09,0A66.38,66.38,0,0,1,298.89,16.3a.05.05,0,0,0,0-.08A56.91,56.91,0,0,0,261.34.69Z"/><path class="cls-2" d="M316.55,68.64c.08.25.16.5.25.75v-.75Z"/><path d="M408.06,56.81c0,.33,0,.67,0,1s0,.61,0,.92c0-.31,0-.61,0-.92S408.07,57.14,408.06,56.81Z"/><path class="cls-3" d="M391.26,98.38a57.22,57.22,0,1,1-.41-81.4.58.58,0,0,1,0,.75,66.07,66.07,0,0,0-10.39,20.05l-.06.21A35.73,35.73,0,0,0,317,46.53a.57.57,0,0,0,.54.75h60a.56.56,0,0,1,.56.65,67.23,67.23,0,0,0-.73,9.89A65.5,65.5,0,0,0,378.21,68a.58.58,0,0,1-.57.66H317.58a.57.57,0,0,0-.54.75h0a35.65,35.65,0,0,0,33.88,24.22,36.77,36.77,0,0,0,25.36-10.39.59.59,0,0,1,.39-.16H382a.58.58,0,0,1,.53.35,66,66,0,0,0,8.64,14.87Z"/><path class="cls-3" d="M500.26,48.62a57.2,57.2,0,0,0-96.77-31.33,58.24,58.24,0,0,0-6.15,7.24,57.16,57.16,0,1,0,100.82,51c.08-.23.15-.46.22-.69.12-.38.23-.75.34-1.13s.23-.78.33-1.17A56.67,56.67,0,0,0,501,57.82,58,58,0,0,0,500.26,48.62ZM443.84,93.33a35.83,35.83,0,0,1-29.6-15.54,35.11,35.11,0,0,1-6.18-19h0v0c0-.31,0-.62,0-.92s0-.68,0-1h0a35.79,35.79,0,1,1,35.78,36.53Z"/><polygon class="cls-1" points="231.72 125.79 226.99 136.56 212.52 169.52 202.11 169.52 221.68 125.79 231.72 125.79"/><polygon class="cls-1" points="251.36 169.52 240.69 169.52 236.8 160.15 236.8 160.15 233.6 152.47 226.99 136.56 231.72 125.79 251.36 169.52"/><path class="cls-1" d="M259.89,135.8v12.3a22.32,22.32,0,0,1,9.35-9.89V135.8Z"/><path class="cls-1" d="M280.85,135.31v8.89c-1.09-.08-1.82-.12-2.2-.12a9.08,9.08,0,0,0-6.59,2.31c-1.59,1.55-2.38,3.86-2.38,7v16.18h-9.79V148.1a22.4,22.4,0,0,1,9.35-9.9A23.72,23.72,0,0,1,280.85,135.31Z"/><path class="cls-1" d="M311.9,136.54V144h-8.4c-8.32-.31-9.79-7.41-9.79-7.41V125.79h9.79v10.75Z"/><path class="cls-1" d="M346.06,167.46a16.51,16.51,0,0,1-1.69.74,19.69,19.69,0,0,1-3.18.86,29,29,0,0,1-5.38.46H305.48c-3.61-.13-6.44-1.14-8.48-3q-3.3-3-3.29-8.9V144H288.5v-7.41h5.21s1.47,7.09,9.78,7.41v13.53a4.49,4.49,0,0,0,1.1,3.24,4,4,0,0,0,2.86,1.13h32.36q2.58-.69,2.58-2.64S348.72,161.9,346.06,167.46Z"/><path class="cls-1" d="M351.74,159a8.73,8.73,0,0,1-1.88,5.5,10.9,10.9,0,0,1-3.8,3c2.66-5.56-3.67-8.25-3.67-8.25a2.14,2.14,0,0,0-1.69-2,25.76,25.76,0,0,0-5.21-1,50,50,0,0,1-6.84-1.42,10.75,10.75,0,0,1-4.67-2.84,8,8,0,0,1-2-5.81,9,9,0,0,1,1.85-5.59,12.05,12.05,0,0,1,5.4-3.8,23.46,23.46,0,0,1,8.37-1.36,33,33,0,0,1,7.12.78,19.83,19.83,0,0,1,5.87,2.13l-3.26,6.85a19.69,19.69,0,0,0-9.73-2.47,10,10,0,0,0-4.7.87,2.54,2.54,0,0,0-1.57,2.22,2.2,2.2,0,0,0,1.69,2.16,30.63,30.63,0,0,0,5.4,1.18,57.15,57.15,0,0,1,6.78,1.45,10.21,10.21,0,0,1,4.58,2.81A7.92,7.92,0,0,1,351.74,159Z"/></g></g></svg>